<svg width="40" height="40" viewBox="0 0 40 40" fill="none" xmlns="http://www.w3.org/2000/svg">
<path d="M15 3.07001L25.1233 8.97667L36.6667 4.16667V18.3333H33.3333V9.16667L26.6667 11.945V18.3333H23.3333V11.79L16.6667 7.90167V28.21L19.78 30.0267L18.1 32.905L14.8767 31.0233L3.33333 35.8333V9.87667L15 3.07001ZM13.3333 28.055V7.90167L6.66667 11.79V30.8333L13.3333 28.055ZM30 23.3333C28.7844 23.3333 27.6186 23.8162 26.7591 24.6758C25.8996 25.5353 25.4167 26.7011 25.4167 27.9167C25.4167 30.0033 26.6417 32.0067 28.1083 33.62C28.7867 34.3667 29.47 34.9767 30 35.4117C30.53 34.9783 31.2133 34.3667 31.8917 33.62C33.3583 32.0067 34.5833 30.0033 34.5833 27.9167C34.5833 26.7011 34.1004 25.5353 33.2409 24.6758C32.3814 23.8162 31.2156 23.3333 30 23.3333ZM30 39.5017L29.075 38.8867L29.0717 38.885L29.065 38.88L29.045 38.8667L28.9783 38.82L28.75 38.6583C27.6262 37.829 26.5853 36.893 25.6417 35.8633C23.9833 34.04 22.0833 31.2517 22.0833 27.9167C22.0833 26.877 22.2881 25.8476 22.686 24.8871C23.0838 23.9266 23.6669 23.0539 24.4021 22.3187C25.1372 21.5836 26.0099 21.0005 26.9704 20.6026C27.9309 20.2048 28.9604 20 30 20C31.0396 20 32.0691 20.2048 33.0296 20.6026C33.9901 21.0005 34.8628 21.5836 35.5979 22.3187C36.3331 23.0539 36.9162 23.9266 37.314 24.8871C37.7119 25.8476 37.9167 26.877 37.9167 27.9167C37.9167 31.2517 36.0167 34.04 34.3583 35.8633C33.3507 36.961 32.2326 37.9518 31.0217 38.82L30.955 38.8667L30.935 38.88L30.9283 38.885H30.925L30 39.5017ZM27.9167 26.6667H32.0833V30H27.9167V26.6667Z" fill="black"/>
</svg>
